<?xml version="1.0" encoding="UTF-8"?>
<svg id="Layer_5" data-name="Layer 5" xmlns="http://www.w3.org/2000/svg" xmlns:xlink="http://www.w3.org/1999/xlink" viewBox="0 0 283.46 1000">
  <defs>
    <filter id="drop-shadow-1" filterUnits="userSpaceOnUse">
      <feOffset dx="2.83" dy="4.25"/>
      <feGaussianBlur result="blur" stdDeviation="0"/>
      <feFlood flood-color="#006129" flood-opacity=".75"/>
      <feComposite in2="blur" operator="in"/>
      <feComposite in="SourceGraphic"/>
    </filter>
    <filter id="drop-shadow-2" filterUnits="userSpaceOnUse">
      <feOffset dx="2.83" dy="2.83"/>
      <feGaussianBlur result="blur-2" stdDeviation="0"/>
      <feFlood flood-color="#006129" flood-opacity=".75"/>
      <feComposite in2="blur-2" operator="in"/>
      <feComposite in="SourceGraphic"/>
    </filter>
  </defs>
  <path d="m142.49,236.51c-13.84,0-27.68,0-41.52,0q-1.65,0-1.66-1.7c0-2.03,0-4.06,0-6.09,0-.5.09-.89.58-1.17,5.38-3.12,9.66-7.48,13.58-12.22,4.8-5.79,8.47-12.24,11.34-19.2,2.71-6.57,4.46-13.37,5.73-20.32.05-.27.2-.59-.09-.78-.25-.16-.45.12-.65.25-6.01,3.96-12.45,7.02-19.35,9.08-5.57,1.66-11.27,2.51-17.08,2.42-12.05-.17-22.88-3.96-32.42-11.28-10.39-7.97-16.61-18.53-18.53-31.46-1.33-8.98.18-17.65,3.74-25.99,2.52-5.9,5.74-11.38,9.9-16.26,4.65-5.46,9.72-10.49,15.43-14.86,5.38-4.12,10.82-8.16,16.03-12.5,4.61-3.84,9.07-7.83,13.45-11.93,8.3-7.77,15.96-16.1,22.8-25.18,7-9.31,13.19-19.12,18.28-29.61.1-.21.12-.55.44-.52.29.03.31.35.42.57,3.28,6.68,6.94,13.15,11.04,19.36,4.55,6.89,9.48,13.5,14.91,19.71,5.96,6.83,12.36,13.23,19.08,19.32,6.28,5.69,12.78,11.09,19.52,16.21,3.23,2.46,6.52,4.84,9.61,7.49,6.87,5.88,13.07,12.38,17.67,20.23,3.45,5.9,6.21,12.1,7.41,18.91,2.3,13.04-.2,25.07-7.89,35.84-8.54,11.97-20.35,18.83-34.77,21.25-10.73,1.8-21.07.15-31.1-3.86-4.66-1.86-9.04-4.24-13.26-6.93-.2-.13-.38-.42-.65-.25-.25.15-.15.46-.1.69,1.16,6.14,2.56,12.21,4.8,18.07,3.45,9.02,8.2,17.25,14.73,24.39,3.2,3.5,6.73,6.6,10.76,9.12.69.43.99.92.97,1.74-.05,2.06-.01,4.12-.01,6.18,0,1.25,0,1.26-1.25,1.26-11.78,0-23.55,0-35.33,0-2.19,0-4.37,0-6.56,0Z" style="fill: #00a14b; filter: url(#drop-shadow-1); stroke-width: 0px;"/>
  <g style="filter: url(#drop-shadow-2);">
    <rect x="40.5" y="244.74" width="950" height="31.54" style="fill: #00a14b; stroke-width: 0px;"/>
  </g>
</svg>